<mxfile host="app.diagrams.net" modified="2021-01-26T22:23:06.786Z" agent="5.0 (Windows)" etag="-Q_1wa8J5Ck9BxCc6taf" version="14.2.7" type="github">
  <diagram id="cBdduaElbq22hq3UisLT" name="Page-1">
    <mxGraphModel dx="1955" dy="1078" grid="1" gridSize="10" guides="1" tooltips="1" connect="1" arrows="1" fold="1" page="1" pageScale="1" pageWidth="827" pageHeight="1169" math="0" shadow="0">
      <root>
        <mxCell id="0" />
        <mxCell id="1" parent="0" />
        <mxCell id="qFLBm8vVMwvd1Peig4M2-188" value="Sistema" style="html=1;verticalAlign=top;strokeColor=#36393d;fillColor=#E8F2FF;" vertex="1" parent="1">
          <mxGeometry x="200" y="40" width="1010" height="1050" as="geometry" />
        </mxCell>
        <mxCell id="qFLBm8vVMwvd1Peig4M2-161" style="rounded=0;orthogonalLoop=1;jettySize=auto;html=1;exitX=0.5;exitY=0.5;exitDx=0;exitDy=0;exitPerimeter=0;entryX=0;entryY=1;entryDx=0;entryDy=0;" edge="1" parent="1" source="qFLBm8vVMwvd1Peig4M2-1" target="qFLBm8vVMwvd1Peig4M2-149">
          <mxGeometry relative="1" as="geometry" />
        </mxCell>
        <mxCell id="qFLBm8vVMwvd1Peig4M2-165" style="edgeStyle=none;rounded=0;orthogonalLoop=1;jettySize=auto;html=1;exitX=0.5;exitY=0.5;exitDx=0;exitDy=0;exitPerimeter=0;entryX=0;entryY=0.5;entryDx=0;entryDy=0;" edge="1" parent="1" source="qFLBm8vVMwvd1Peig4M2-1" target="qFLBm8vVMwvd1Peig4M2-3">
          <mxGeometry relative="1" as="geometry" />
        </mxCell>
        <mxCell id="qFLBm8vVMwvd1Peig4M2-167" style="edgeStyle=none;rounded=0;orthogonalLoop=1;jettySize=auto;html=1;exitX=1;exitY=1;exitDx=0;exitDy=0;exitPerimeter=0;entryX=0;entryY=1;entryDx=0;entryDy=0;" edge="1" parent="1" source="qFLBm8vVMwvd1Peig4M2-1" target="qFLBm8vVMwvd1Peig4M2-4">
          <mxGeometry relative="1" as="geometry" />
        </mxCell>
        <mxCell id="qFLBm8vVMwvd1Peig4M2-1" value="Usuario" style="shape=umlActor;verticalLabelPosition=bottom;verticalAlign=top;html=1;" vertex="1" parent="1">
          <mxGeometry x="90" y="490" width="30" height="60" as="geometry" />
        </mxCell>
        <mxCell id="qFLBm8vVMwvd1Peig4M2-3" value="Realizar compras" style="ellipse;whiteSpace=wrap;html=1;fillColor=#fff2cc;strokeColor=#d6b656;" vertex="1" parent="1">
          <mxGeometry x="330" y="495" width="120" height="50" as="geometry" />
        </mxCell>
        <mxCell id="qFLBm8vVMwvd1Peig4M2-4" value="Registro / Alta" style="ellipse;whiteSpace=wrap;html=1;fillColor=#fff2cc;strokeColor=#d6b656;" vertex="1" parent="1">
          <mxGeometry x="320" y="950" width="120" height="55" as="geometry" />
        </mxCell>
        <mxCell id="qFLBm8vVMwvd1Peig4M2-5" value="Hacer búsqueda" style="ellipse;whiteSpace=wrap;html=1;fillColor=#b0e3e6;strokeColor=#0e8088;" vertex="1" parent="1">
          <mxGeometry x="580" y="130" width="120" height="60" as="geometry" />
        </mxCell>
        <mxCell id="qFLBm8vVMwvd1Peig4M2-6" value="&lt;div&gt;Abrir ficha de &lt;br&gt;&lt;/div&gt;&lt;div&gt;articulo&lt;/div&gt;" style="ellipse;whiteSpace=wrap;html=1;fillColor=#b0e3e6;strokeColor=#0e8088;" vertex="1" parent="1">
          <mxGeometry x="580" y="200" width="120" height="60" as="geometry" />
        </mxCell>
        <mxCell id="qFLBm8vVMwvd1Peig4M2-7" value="Identificarse" style="ellipse;whiteSpace=wrap;html=1;" vertex="1" parent="1">
          <mxGeometry x="1020" y="480" width="100" height="60" as="geometry" />
        </mxCell>
        <mxCell id="qFLBm8vVMwvd1Peig4M2-8" value="Ver articulos recomendados" style="ellipse;whiteSpace=wrap;html=1;fillColor=#b0e3e6;strokeColor=#0e8088;" vertex="1" parent="1">
          <mxGeometry x="582.5" y="340" width="125" height="60" as="geometry" />
        </mxCell>
        <mxCell id="qFLBm8vVMwvd1Peig4M2-9" value="Añadir a favoritos" style="ellipse;whiteSpace=wrap;html=1;fillColor=#b0e3e6;strokeColor=#0e8088;" vertex="1" parent="1">
          <mxGeometry x="580" y="270" width="130" height="60" as="geometry" />
        </mxCell>
        <mxCell id="qFLBm8vVMwvd1Peig4M2-10" value="Añadir al carro de la compra" style="ellipse;whiteSpace=wrap;html=1;fillColor=#b0e3e6;strokeColor=#0e8088;" vertex="1" parent="1">
          <mxGeometry x="582.5" y="410" width="130" height="60" as="geometry" />
        </mxCell>
        <mxCell id="qFLBm8vVMwvd1Peig4M2-149" value="Ver articulos" style="ellipse;whiteSpace=wrap;html=1;fillColor=#fff2cc;strokeColor=#d6b656;" vertex="1" parent="1">
          <mxGeometry x="320" y="110" width="120" height="50" as="geometry" />
        </mxCell>
        <mxCell id="qFLBm8vVMwvd1Peig4M2-151" value="&lt;div&gt;Ver/Actualizar&lt;/div&gt;&lt;div&gt;carrito&lt;br&gt;&lt;/div&gt;" style="ellipse;whiteSpace=wrap;html=1;fillColor=#b0e3e6;strokeColor=#0e8088;" vertex="1" parent="1">
          <mxGeometry x="580" y="620" width="140" height="70" as="geometry" />
        </mxCell>
        <mxCell id="qFLBm8vVMwvd1Peig4M2-152" value="&lt;div&gt;Calcular gastos &lt;br&gt;&lt;/div&gt;&lt;div&gt;de envio&lt;/div&gt;" style="ellipse;whiteSpace=wrap;html=1;" vertex="1" parent="1">
          <mxGeometry x="583" y="700" width="140" height="70" as="geometry" />
        </mxCell>
        <mxCell id="qFLBm8vVMwvd1Peig4M2-153" value="Realizar pagos" style="ellipse;whiteSpace=wrap;html=1;" vertex="1" parent="1">
          <mxGeometry x="583" y="780" width="140" height="70" as="geometry" />
        </mxCell>
        <mxCell id="qFLBm8vVMwvd1Peig4M2-154" value="Realizar pagos" style="ellipse;whiteSpace=wrap;html=1;fillColor=#b0e3e6;strokeColor=#0e8088;" vertex="1" parent="1">
          <mxGeometry x="583" y="780" width="140" height="70" as="geometry" />
        </mxCell>
        <mxCell id="qFLBm8vVMwvd1Peig4M2-155" value="&lt;div&gt;Calcular gastos &lt;br&gt;&lt;/div&gt;&lt;div&gt;de envio&lt;/div&gt;" style="ellipse;whiteSpace=wrap;html=1;fillColor=#b0e3e6;strokeColor=#0e8088;" vertex="1" parent="1">
          <mxGeometry x="583" y="700" width="140" height="70" as="geometry" />
        </mxCell>
        <mxCell id="qFLBm8vVMwvd1Peig4M2-156" value="Calcular total" style="ellipse;whiteSpace=wrap;html=1;fillColor=#fad9d5;strokeColor=#ae4132;" vertex="1" parent="1">
          <mxGeometry x="880" y="620" width="140" height="70" as="geometry" />
        </mxCell>
        <mxCell id="qFLBm8vVMwvd1Peig4M2-157" value="Pago por Paypal" style="ellipse;whiteSpace=wrap;html=1;" vertex="1" parent="1">
          <mxGeometry x="880" y="850" width="140" height="70" as="geometry" />
        </mxCell>
        <mxCell id="qFLBm8vVMwvd1Peig4M2-158" value="&lt;div&gt;Pago por &lt;br&gt;&lt;/div&gt;&lt;div&gt;tarjeta credito&lt;/div&gt;" style="ellipse;whiteSpace=wrap;html=1;" vertex="1" parent="1">
          <mxGeometry x="880" y="950" width="140" height="70" as="geometry" />
        </mxCell>
        <mxCell id="qFLBm8vVMwvd1Peig4M2-171" value="&amp;lt;&amp;lt;extend&amp;gt;&amp;gt;" style="edgeStyle=none;html=1;startArrow=open;endArrow=none;startSize=12;verticalAlign=bottom;dashed=1;labelBackgroundColor=none;entryX=0;entryY=1;entryDx=0;entryDy=0;exitX=1;exitY=1;exitDx=0;exitDy=0;" edge="1" parent="1" source="qFLBm8vVMwvd1Peig4M2-149" target="qFLBm8vVMwvd1Peig4M2-5">
          <mxGeometry width="160" relative="1" as="geometry">
            <mxPoint x="440" y="140" as="sourcePoint" />
            <mxPoint x="580" y="140" as="targetPoint" />
          </mxGeometry>
        </mxCell>
        <mxCell id="qFLBm8vVMwvd1Peig4M2-173" value="&amp;lt;&amp;lt;extend&amp;gt;&amp;gt;" style="edgeStyle=none;html=1;startArrow=open;endArrow=none;startSize=12;verticalAlign=bottom;dashed=1;labelBackgroundColor=none;entryX=0;entryY=1;entryDx=0;entryDy=0;" edge="1" parent="1" source="qFLBm8vVMwvd1Peig4M2-149" target="qFLBm8vVMwvd1Peig4M2-6">
          <mxGeometry width="160" relative="1" as="geometry">
            <mxPoint x="410" y="160" as="sourcePoint" />
            <mxPoint x="870" y="490" as="targetPoint" />
          </mxGeometry>
        </mxCell>
        <mxCell id="qFLBm8vVMwvd1Peig4M2-174" value="&amp;lt;&amp;lt;extend&amp;gt;&amp;gt;" style="edgeStyle=none;html=1;startArrow=open;endArrow=none;startSize=12;verticalAlign=bottom;dashed=1;labelBackgroundColor=none;entryX=0;entryY=0.5;entryDx=0;entryDy=0;" edge="1" parent="1" source="qFLBm8vVMwvd1Peig4M2-149" target="qFLBm8vVMwvd1Peig4M2-9">
          <mxGeometry width="160" relative="1" as="geometry">
            <mxPoint x="400" y="160" as="sourcePoint" />
            <mxPoint x="580" y="230" as="targetPoint" />
          </mxGeometry>
        </mxCell>
        <mxCell id="qFLBm8vVMwvd1Peig4M2-175" value="&amp;lt;&amp;lt;extend&amp;gt;&amp;gt;" style="edgeStyle=none;html=1;startArrow=open;endArrow=none;startSize=12;verticalAlign=bottom;dashed=1;labelBackgroundColor=none;entryX=0.073;entryY=0.281;entryDx=0;entryDy=0;entryPerimeter=0;exitX=0.656;exitY=1.023;exitDx=0;exitDy=0;exitPerimeter=0;" edge="1" parent="1" source="qFLBm8vVMwvd1Peig4M2-149" target="qFLBm8vVMwvd1Peig4M2-8">
          <mxGeometry width="160" relative="1" as="geometry">
            <mxPoint x="390" y="150" as="sourcePoint" />
            <mxPoint x="590" y="240" as="targetPoint" />
          </mxGeometry>
        </mxCell>
        <mxCell id="qFLBm8vVMwvd1Peig4M2-176" value="&amp;lt;&amp;lt;extend&amp;gt;&amp;gt;" style="edgeStyle=none;html=1;startArrow=open;endArrow=none;startSize=12;verticalAlign=bottom;dashed=1;labelBackgroundColor=none;entryX=0;entryY=0.5;entryDx=0;entryDy=0;exitX=0.5;exitY=1;exitDx=0;exitDy=0;" edge="1" parent="1" source="qFLBm8vVMwvd1Peig4M2-149" target="qFLBm8vVMwvd1Peig4M2-10">
          <mxGeometry width="160" relative="1" as="geometry">
            <mxPoint x="430" y="180" as="sourcePoint" />
            <mxPoint x="600" y="250" as="targetPoint" />
          </mxGeometry>
        </mxCell>
        <mxCell id="qFLBm8vVMwvd1Peig4M2-177" value="&amp;lt;&amp;lt;include&amp;gt;&amp;gt;" style="html=1;verticalAlign=bottom;labelBackgroundColor=none;endArrow=open;endFill=0;dashed=1;exitX=1;exitY=0.5;exitDx=0;exitDy=0;entryX=0.059;entryY=0.352;entryDx=0;entryDy=0;entryPerimeter=0;" edge="1" parent="1" target="qFLBm8vVMwvd1Peig4M2-7">
          <mxGeometry width="160" relative="1" as="geometry">
            <mxPoint x="707.5" y="367" as="sourcePoint" />
            <mxPoint x="1030" y="497" as="targetPoint" />
          </mxGeometry>
        </mxCell>
        <mxCell id="qFLBm8vVMwvd1Peig4M2-178" value="&amp;lt;&amp;lt;include&amp;gt;&amp;gt;" style="html=1;verticalAlign=bottom;labelBackgroundColor=none;endArrow=open;endFill=0;dashed=1;exitX=1;exitY=0.5;exitDx=0;exitDy=0;" edge="1" parent="1" source="qFLBm8vVMwvd1Peig4M2-9" target="qFLBm8vVMwvd1Peig4M2-7">
          <mxGeometry width="160" relative="1" as="geometry">
            <mxPoint x="580" y="510" as="sourcePoint" />
            <mxPoint x="740" y="510" as="targetPoint" />
          </mxGeometry>
        </mxCell>
        <mxCell id="qFLBm8vVMwvd1Peig4M2-179" value="&amp;lt;&amp;lt;extend&amp;gt;&amp;gt;" style="edgeStyle=none;html=1;startArrow=open;endArrow=none;startSize=12;verticalAlign=bottom;dashed=1;labelBackgroundColor=none;entryX=0;entryY=0.5;entryDx=0;entryDy=0;exitX=1;exitY=0.5;exitDx=0;exitDy=0;" edge="1" parent="1" source="qFLBm8vVMwvd1Peig4M2-10" target="qFLBm8vVMwvd1Peig4M2-7">
          <mxGeometry width="160" relative="1" as="geometry">
            <mxPoint x="580" y="510" as="sourcePoint" />
            <mxPoint x="740" y="510" as="targetPoint" />
          </mxGeometry>
        </mxCell>
        <mxCell id="qFLBm8vVMwvd1Peig4M2-180" value="&amp;lt;&amp;lt;include&amp;gt;&amp;gt;" style="html=1;verticalAlign=bottom;labelBackgroundColor=none;endArrow=open;endFill=0;dashed=1;exitX=1;exitY=0.5;exitDx=0;exitDy=0;entryX=0.044;entryY=0.686;entryDx=0;entryDy=0;entryPerimeter=0;" edge="1" parent="1" source="qFLBm8vVMwvd1Peig4M2-3" target="qFLBm8vVMwvd1Peig4M2-7">
          <mxGeometry width="160" relative="1" as="geometry">
            <mxPoint x="580" y="510" as="sourcePoint" />
            <mxPoint x="740" y="510" as="targetPoint" />
          </mxGeometry>
        </mxCell>
        <mxCell id="qFLBm8vVMwvd1Peig4M2-181" value="&amp;lt;&amp;lt;include&amp;gt;&amp;gt;" style="html=1;verticalAlign=bottom;labelBackgroundColor=none;endArrow=open;endFill=0;dashed=1;exitX=0.965;exitY=0.751;exitDx=0;exitDy=0;exitPerimeter=0;entryX=0;entryY=0;entryDx=0;entryDy=0;" edge="1" parent="1" source="qFLBm8vVMwvd1Peig4M2-3" target="qFLBm8vVMwvd1Peig4M2-151">
          <mxGeometry width="160" relative="1" as="geometry">
            <mxPoint x="580" y="650" as="sourcePoint" />
            <mxPoint x="740" y="650" as="targetPoint" />
          </mxGeometry>
        </mxCell>
        <mxCell id="qFLBm8vVMwvd1Peig4M2-182" value="&amp;lt;&amp;lt;include&amp;gt;&amp;gt;" style="html=1;verticalAlign=bottom;labelBackgroundColor=none;endArrow=open;endFill=0;dashed=1;entryX=0;entryY=0.5;entryDx=0;entryDy=0;" edge="1" parent="1" target="qFLBm8vVMwvd1Peig4M2-155">
          <mxGeometry width="160" relative="1" as="geometry">
            <mxPoint x="419" y="540" as="sourcePoint" />
            <mxPoint x="740" y="650" as="targetPoint" />
          </mxGeometry>
        </mxCell>
        <mxCell id="qFLBm8vVMwvd1Peig4M2-184" value="&amp;lt;&amp;lt;include&amp;gt;&amp;gt;" style="html=1;verticalAlign=bottom;labelBackgroundColor=none;endArrow=open;endFill=0;dashed=1;exitX=0.5;exitY=1;exitDx=0;exitDy=0;entryX=0;entryY=0.5;entryDx=0;entryDy=0;" edge="1" parent="1" source="qFLBm8vVMwvd1Peig4M2-3" target="qFLBm8vVMwvd1Peig4M2-154">
          <mxGeometry width="160" relative="1" as="geometry">
            <mxPoint x="580" y="650" as="sourcePoint" />
            <mxPoint x="740" y="650" as="targetPoint" />
          </mxGeometry>
        </mxCell>
        <mxCell id="qFLBm8vVMwvd1Peig4M2-185" value="&amp;lt;&amp;lt;include&amp;gt;&amp;gt;" style="html=1;verticalAlign=bottom;labelBackgroundColor=none;endArrow=open;endFill=0;dashed=1;exitX=1;exitY=0.5;exitDx=0;exitDy=0;entryX=0;entryY=0.5;entryDx=0;entryDy=0;" edge="1" parent="1" source="qFLBm8vVMwvd1Peig4M2-151" target="qFLBm8vVMwvd1Peig4M2-156">
          <mxGeometry width="160" relative="1" as="geometry">
            <mxPoint x="580" y="710" as="sourcePoint" />
            <mxPoint x="740" y="710" as="targetPoint" />
          </mxGeometry>
        </mxCell>
        <mxCell id="qFLBm8vVMwvd1Peig4M2-186" value="&amp;lt;&amp;lt;extend&amp;gt;&amp;gt;" style="edgeStyle=none;html=1;startArrow=open;endArrow=none;startSize=12;verticalAlign=bottom;dashed=1;labelBackgroundColor=none;entryX=0;entryY=0.5;entryDx=0;entryDy=0;" edge="1" parent="1" source="qFLBm8vVMwvd1Peig4M2-154" target="qFLBm8vVMwvd1Peig4M2-157">
          <mxGeometry width="160" relative="1" as="geometry">
            <mxPoint x="580" y="740" as="sourcePoint" />
            <mxPoint x="740" y="740" as="targetPoint" />
          </mxGeometry>
        </mxCell>
        <mxCell id="qFLBm8vVMwvd1Peig4M2-187" value="&amp;lt;&amp;lt;extend&amp;gt;&amp;gt;" style="edgeStyle=none;html=1;startArrow=open;endArrow=none;startSize=12;verticalAlign=bottom;dashed=1;labelBackgroundColor=none;entryX=0;entryY=0.5;entryDx=0;entryDy=0;exitX=0.673;exitY=0.935;exitDx=0;exitDy=0;exitPerimeter=0;fillColor=#b0e3e6;strokeColor=#0e8088;" edge="1" parent="1" source="qFLBm8vVMwvd1Peig4M2-154" target="qFLBm8vVMwvd1Peig4M2-158">
          <mxGeometry width="160" relative="1" as="geometry">
            <mxPoint x="580" y="910" as="sourcePoint" />
            <mxPoint x="740" y="910" as="targetPoint" />
          </mxGeometry>
        </mxCell>
        <mxCell id="qFLBm8vVMwvd1Peig4M2-189" value="Paypal" style="shape=umlActor;verticalLabelPosition=bottom;verticalAlign=top;html=1;" vertex="1" parent="1">
          <mxGeometry x="1310" y="860" width="30" height="60" as="geometry" />
        </mxCell>
        <mxCell id="qFLBm8vVMwvd1Peig4M2-190" value="BBVA" style="shape=umlActor;verticalLabelPosition=bottom;verticalAlign=top;html=1;" vertex="1" parent="1">
          <mxGeometry x="1310" y="960" width="30" height="60" as="geometry" />
        </mxCell>
        <mxCell id="qFLBm8vVMwvd1Peig4M2-191" value="" style="line;strokeWidth=1;rotatable=0;dashed=0;labelPosition=right;align=left;verticalAlign=middle;spacingTop=0;spacingLeft=6;points=[];portConstraint=eastwest;" vertex="1" parent="1">
          <mxGeometry x="1020" y="880" width="290" height="10" as="geometry" />
        </mxCell>
        <mxCell id="qFLBm8vVMwvd1Peig4M2-192" value="" style="line;strokeWidth=1;rotatable=0;dashed=0;labelPosition=right;align=left;verticalAlign=middle;spacingTop=0;spacingLeft=6;points=[];portConstraint=eastwest;" vertex="1" parent="1">
          <mxGeometry x="1020" y="980" width="300" height="10" as="geometry" />
        </mxCell>
        <mxCell id="qFLBm8vVMwvd1Peig4M2-193" value="Identificarse" style="ellipse;whiteSpace=wrap;html=1;" vertex="1" parent="1">
          <mxGeometry x="1020" y="480" width="100" height="60" as="geometry" />
        </mxCell>
        <mxCell id="qFLBm8vVMwvd1Peig4M2-194" value="Identificarse" style="ellipse;whiteSpace=wrap;html=1;fillColor=#fad9d5;strokeColor=#ae4132;" vertex="1" parent="1">
          <mxGeometry x="1020" y="480" width="100" height="60" as="geometry" />
        </mxCell>
        <mxCell id="qFLBm8vVMwvd1Peig4M2-195" value="Pago por Paypal" style="ellipse;whiteSpace=wrap;html=1;fillColor=#fad9d5;strokeColor=#ae4132;" vertex="1" parent="1">
          <mxGeometry x="880" y="850" width="140" height="70" as="geometry" />
        </mxCell>
        <mxCell id="qFLBm8vVMwvd1Peig4M2-196" value="&lt;div&gt;Pago por &lt;br&gt;&lt;/div&gt;&lt;div&gt;tarjeta credito&lt;/div&gt;" style="ellipse;whiteSpace=wrap;html=1;fillColor=#fad9d5;strokeColor=#ae4132;" vertex="1" parent="1">
          <mxGeometry x="880" y="950" width="140" height="70" as="geometry" />
        </mxCell>
      </root>
    </mxGraphModel>
  </diagram>
</mxfile>
